<?xml version="1.0" standalone="no"?>
<!DOCTYPE svg PUBLIC "-//W3C//DTD SVG 20010904//EN"
 "http://www.w3.org/TR/2001/REC-SVG-20010904/DTD/svg10.dtd">
<svg version="1.0" xmlns="http://www.w3.org/2000/svg"
 width="450.000000pt" height="450.000000pt" viewBox="0 0 450.000000 450.000000"
 preserveAspectRatio="xMidYMid meet">

<g transform="translate(0.000000,450.000000) scale(0.100000,-0.100000)"
fill="#000000" stroke="none">
<path d="M2400 3864 c-69 -19 -163 -71 -221 -123 l-44 -40 75 39 c100 51 180
73 267 73 59 -1 84 -6 138 -32 78 -36 162 -117 202 -194 23 -45 27 -64 27
-137 0 -147 -55 -255 -301 -585 -86 -116 -170 -239 -187 -275 -28 -59 -31 -74
-31 -161 0 -89 2 -99 37 -170 20 -41 49 -86 64 -99 l27 -25 -16 26 c-49 75
-73 203 -56 290 15 77 49 127 225 334 217 255 315 421 346 584 24 133 -24 272
-129 372 -130 124 -269 164 -423 123z"/>
<path d="M1530 3374 c-107 -29 -202 -107 -258 -212 -105 -199 -76 -388 87
-550 97 -97 224 -177 489 -308 255 -126 306 -163 349 -255 28 -60 46 -162 40
-224 l-6 -50 14 40 c21 64 19 204 -5 269 -46 122 -89 158 -400 335 -251 144
-323 192 -406 277 -84 85 -119 158 -119 249 0 125 64 256 161 330 67 52 141
70 281 70 67 0 116 3 110 6 -29 16 -162 39 -219 38 -35 0 -88 -7 -118 -15z"/>
<path d="M2923 2869 c59 -185 68 -249 43 -297 -24 -47 -122 -138 -204 -190
-62 -39 -71 -48 -57 -57 200 -121 346 -254 407 -371 113 -216 53 -413 -210
-687 -94 -97 -85 -100 43 -14 304 204 413 467 302 730 -44 102 -156 231 -278
316 l-66 47 43 47 c24 27 58 77 75 113 28 56 31 71 26 116 -7 52 -70 192 -108
238 -12 14 -19 18 -16 9z"/>
<path d="M2913 1779 c-12 -4 -27 -18 -33 -29 l-12 -22 -24 23 c-20 19 -29 21
-52 13 -60 -21 -30 -91 85 -197 l30 -28 30 58 c17 32 36 75 41 96 18 66 -12
106 -65 86z"/>
<path d="M1440 610 c-60 -60 -22 -155 61 -152 42 1 59 18 56 56 -2 24 -8 32
-26 34 -13 2 -28 -1 -34 -7 -8 -8 -5 -11 11 -11 29 0 31 -45 3 -53 -53 -13
-98 52 -70 101 14 24 21 27 67 26 44 -2 51 1 41 12 -17 21 -85 18 -109 -6z"/>
<path d="M1570 624 c0 -3 14 -25 30 -49 17 -24 30 -53 30 -63 0 -27 10 -52 21
-52 5 0 9 14 9 31 0 18 14 54 31 81 30 50 31 84 0 39 -46 -69 -46 -69 -75 -23
-23 36 -46 55 -46 36z"/>
<path d="M1747 623 c-4 -3 -7 -42 -7 -85 0 -61 3 -78 15 -78 10 0 15 16 17 61
l3 61 44 -61 c25 -34 50 -60 55 -58 16 5 14 159 -1 164 -8 3 -13 -15 -15 -59
l-3 -63 -45 62 c-46 63 -51 68 -63 56z"/>
<path d="M1930 545 l0 -85 60 0 c33 0 60 4 60 10 0 6 -22 10 -50 10 -46 0 -50
2 -50 24 0 21 5 25 38 28 47 4 49 22 2 22 -31 1 -35 4 -38 29 -3 26 -2 27 47
27 28 0 51 5 51 10 0 6 -27 10 -60 10 l-60 0 0 -85z"/>
<path d="M2105 604 c-60 -65 -1 -166 84 -144 45 11 35 28 -12 23 -38 -5 -47
-2 -61 18 -20 30 -20 58 0 88 15 21 22 23 66 18 43 -5 48 -4 38 8 -21 26 -87
19 -115 -11z"/>
<path d="M2281 606 c-39 -41 -25 -127 23 -142 68 -22 126 16 126 82 0 75 -98
115 -149 60z m113 -18 c34 -49 7 -110 -49 -110 -56 0 -87 72 -48 114 23 26 78
24 97 -4z"/>
<path d="M2470 545 l0 -85 55 0 c30 0 55 5 55 10 0 6 -20 10 -45 10 l-45 0 0
75 c0 43 -4 75 -10 75 -6 0 -10 -35 -10 -85z"/>
<path d="M2619 611 c-19 -15 -24 -29 -24 -66 0 -57 28 -85 84 -85 48 0 79 23
86 64 8 38 -14 90 -40 100 -32 12 -83 6 -106 -13z m106 -15 c22 -16 26 -76 6
-100 -8 -10 -29 -16 -52 -16 -30 0 -42 6 -55 25 -19 29 -11 80 14 95 24 14 65
12 87 -4z"/>
<path d="M2823 608 c-31 -35 -36 -63 -18 -102 34 -71 130 -68 130 4 0 31 -3
35 -27 38 -33 4 -38 -13 -7 -21 31 -8 21 -41 -14 -45 -38 -5 -67 23 -67 63 0
47 29 69 81 61 37 -6 41 -5 29 9 -20 24 -83 19 -107 -7z"/>
<path d="M2960 619 c0 -6 14 -30 30 -54 17 -25 30 -57 30 -74 0 -17 5 -31 10
-31 6 0 10 13 10 30 0 16 14 52 30 78 31 51 35 62 22 62 -4 0 -18 -18 -32 -40
-14 -22 -28 -40 -32 -40 -4 0 -17 18 -29 40 -22 39 -39 52 -39 29z"/>
</g>
</svg>
