<?xml version="1.0" standalone="no"?>
<!DOCTYPE svg PUBLIC "-//W3C//DTD SVG 20010904//EN"
 "http://www.w3.org/TR/2001/REC-SVG-20010904/DTD/svg10.dtd">
<svg version="1.0" xmlns="http://www.w3.org/2000/svg"
 width="603.000000pt" height="280.000000pt" viewBox="0 0 603.000000 280.000000"
 preserveAspectRatio="xMidYMid meet">

<g transform="translate(0.000000,280.000000) scale(0.100000,-0.100000)"
fill="#000000" stroke="none">
<path d="M4510 2792 c0 -13 36 -42 139 -115 91 -65 121 -79 121 -56 0 5 4 8 9
5 5 -3 15 2 22 11 8 10 9 14 2 10 -6 -4 -14 -3 -18 3 -4 6 -10 8 -15 5 -5 -3
-11 -1 -14 4 -9 15 4 40 25 46 10 4 19 12 19 20 0 7 3 15 8 17 4 2 18 15 31
31 l24 27 -176 0 c-97 0 -177 -4 -177 -8z"/>
<path d="M5040 2791 c0 -6 17 -29 37 -50 50 -54 93 -193 93 -300 -1 -109 -2
-113 -17 -106 -8 3 -28 -9 -45 -26 -31 -30 -31 -31 -25 -112 7 -99 13 -116 36
-110 17 4 17 9 5 66 -18 84 -17 111 4 130 19 17 103 24 136 11 8 -3 32 -48 52
-100 20 -52 39 -94 43 -94 28 1 28 19 3 91 -33 91 -53 124 -91 143 -35 19 -47
49 -61 155 -17 124 -42 181 -111 253 -32 33 -59 56 -59 49z m183 -448 c-7 -2
-21 -2 -30 0 -10 3 -4 5 12 5 17 0 24 -2 18 -5z"/>
<path d="M5360 2746 c0 -32 8 -71 19 -97 11 -24 17 -47 15 -51 -3 -4 2 -5 10
-2 11 4 16 0 16 -10 0 -9 8 -16 19 -16 10 0 30 -9 44 -20 14 -11 33 -20 44
-20 10 0 31 -7 46 -15 15 -8 25 -10 22 -6 -2 5 8 11 24 14 27 6 28 9 34 79 3
40 3 100 -1 133 l-7 60 -142 3 -143 3 0 -55z"/>
<path d="M4391 2774 c0 -11 3 -14 6 -6 3 7 2 16 -1 19 -3 4 -6 -2 -5 -13z"/>
<path d="M4303 2738 c-50 -53 -67 -85 -92 -180 -32 -116 -79 -392 -91 -523 -6
-66 -11 -131 -13 -144 -1 -13 4 -26 11 -28 8 -3 12 8 14 34 l1 38 6 -45 7 -45
7 45 c3 25 9 90 12 145 7 110 56 418 81 505 9 30 30 84 47 120 50 106 56 120
54 120 -2 0 -21 -19 -44 -42z m-156 -755 c-3 -10 -5 -4 -5 12 0 17 2 24 5 18
2 -7 2 -21 0 -30z"/>
<path d="M4646 2509 c-42 -44 -76 -84 -76 -89 0 -4 8 -7 17 -6 12 1 23 -15 36
-51 l19 -53 -25 -62 c-14 -35 -31 -91 -37 -125 -11 -55 -10 -72 8 -145 25 -98
58 -274 71 -373 5 -38 17 -116 27 -171 l17 -102 65 -6 c35 -4 67 -5 69 -2 14
14 -1 755 -18 886 -19 148 -10 240 22 240 6 0 31 -17 56 -37 l44 -37 -20 35
c-32 54 -125 172 -139 177 -9 3 -11 -3 -6 -22 5 -23 3 -26 -19 -26 -14 0 -33
3 -42 6 -14 6 -14 8 1 25 9 11 15 19 12 19 -3 0 -40 -36 -82 -81z"/>
<path d="M4224 1822 c6 -8 13 -32 17 -55 l6 -42 2 36 c1 23 -6 44 -16 56 -10
10 -14 13 -9 5z"/>
<path d="M5400 1830 c0 -5 5 -10 11 -10 6 0 8 -7 5 -16 -4 -9 -1 -14 6 -12 6
2 13 14 15 26 2 16 -2 22 -17 22 -11 0 -20 -4 -20 -10z"/>
<path d="M4097 1696 c7 -42 -6 -47 -39 -14 -17 17 -20 18 -15 4 4 -10 8 -30 8
-44 1 -19 3 -21 6 -9 3 13 10 16 21 12 10 -4 33 -9 52 -12 30 -4 40 0 73 33
42 43 51 71 10 32 -30 -29 -77 -51 -87 -41 -3 4 -6 16 -6 28 0 13 -7 28 -15
35 -12 10 -13 6 -8 -24z"/>
<path d="M5380 1615 c-37 -19 -132 -36 -127 -21 3 6 10 10 16 8 7 -1 10 2 7 7
-3 5 -14 8 -24 6 -71 -15 -73 -16 -70 -38 2 -18 9 -22 38 -20 19 1 36 6 38 12
5 16 44 13 66 -4 11 -8 29 -15 40 -15 15 1 11 5 -14 16 l-35 16 39 13 c21 7
43 18 49 24 14 14 8 13 -23 -4z"/>
<path d="M5482 1603 c-6 -2 -9 -9 -6 -15 4 -6 0 -14 -7 -19 -11 -7 -11 -9 -1
-9 7 0 10 -4 7 -10 -8 -12 -3 -13 29 0 29 11 35 44 10 54 -9 3 -16 6 -17 5 -1
0 -8 -3 -15 -6z"/>
<path d="M3989 1366 c27 -29 33 -32 25 -13 -2 7 -14 19 -27 26 -21 13 -21 12
2 -13z"/>
<path d="M5440 1333 c0 -42 12 -103 19 -99 10 6 0 126 -10 126 -5 0 -9 -12 -9
-27z"/>
<path d="M5003 1038 c3 -10 2 -16 -2 -14 -4 3 -12 -3 -18 -13 -11 -17 -9 -17
52 -1 36 10 66 13 67 8 2 -5 24 0 48 12 l45 21 -57 -6 c-32 -4 -58 -3 -58 2 0
5 -18 9 -41 9 -34 0 -40 -2 -36 -18z"/>
<path d="M4925 975 c-25 -12 -26 -14 -5 -9 14 4 29 10 35 15 12 12 5 11 -30
-6z"/>
<path d="M4810 940 c-18 -12 -2 -12 25 0 13 6 15 9 5 9 -8 0 -22 -4 -30 -9z"/>
<path d="M4240 700 c-8 -5 0 -19 23 -44 28 -30 41 -36 73 -36 22 0 48 7 58 15
30 23 46 18 46 -12 0 -24 1 -25 13 -9 11 14 21 16 67 10 42 -6 50 -9 35 -16
-14 -5 -5 -7 28 -4 47 4 47 3 47 -27 0 -38 -19 -300 -24 -344 l-5 -33 125 0
124 0 0 48 c0 69 -26 251 -45 316 l-16 56 -80 0 -79 0 -6 29 -6 29 -107 4
c-58 2 -107 1 -109 -3 -2 -4 -20 -3 -40 2 -20 5 -53 13 -73 18 -21 5 -42 5
-49 1z m280 -56 c0 -2 -7 -4 -15 -4 -8 0 -15 4 -15 10 0 5 7 7 15 4 8 -4 15
-8 15 -10z"/>
<path d="M2343 95 c0 -27 2 -38 4 -22 2 15 8 27 13 27 5 0 11 -12 13 -27 4
-26 4 -26 6 5 1 22 -4 32 -13 32 -8 0 -17 8 -19 18 -3 9 -5 -5 -4 -33z"/>
<path d="M2842 95 c0 -27 2 -43 5 -35 3 8 13 24 22 35 15 18 15 19 -1 7 -14
-12 -17 -10 -21 15 -2 16 -4 6 -5 -22z"/>
<path d="M2460 120 c-4 -25 1 -54 10 -63 4 -5 5 3 3 17 -4 19 -1 26 10 26 9 0
17 -10 19 -22 2 -12 9 -23 16 -24 7 -1 8 0 2 3 -12 6 -13 40 -1 45 5 2 3 9 -5
16 -8 7 -14 8 -14 2 0 -14 -27 -13 -33 3 -4 8 -6 8 -7 -3z"/>
<path d="M2689 118 c-2 -25 3 -53 11 -62 5 -5 6 1 3 14 -3 12 -1 25 4 29 7 4
6 11 -3 19 -11 10 -14 10 -15 0z"/>
<path d="M3225 120 c-3 -5 0 -7 8 -4 24 9 28 -12 7 -31 -27 -25 -25 -35 8 -34
16 1 20 3 10 6 -15 4 -16 8 -7 25 11 21 12 21 26 -5 16 -32 39 -35 48 -7 15
46 -22 81 -44 43 -9 -17 -10 -17 -16 0 -8 19 -30 23 -40 7z m90 -30 c0 -13 -5
-25 -11 -27 -14 -5 -25 22 -17 42 8 23 28 12 28 -15z"/>
<path d="M3360 125 c-1 -5 -1 -21 0 -34 1 -13 -4 -28 -12 -32 -9 -6 -3 -9 17
-9 17 0 25 4 18 8 -6 4 -13 23 -16 42 -2 19 -5 31 -7 25z"/>
<path d="M3407 123 c-12 -12 -7 -33 7 -33 26 0 28 -20 4 -29 -14 -6 -17 -10
-7 -10 8 -1 20 4 26 10 14 14 6 39 -13 39 -20 0 -17 18 4 23 14 4 14 5 1 6 -9
0 -19 -2 -22 -6z"/>
<path d="M3465 120 c-4 -6 1 -7 11 -3 13 5 16 3 11 -10 -3 -9 -2 -19 4 -22 14
-9 -1 -27 -18 -21 -8 3 -11 1 -8 -4 9 -14 32 -12 38 3 14 38 -19 88 -38 57z"/>
<path d="M3525 120 c-4 -6 1 -7 11 -3 13 5 16 3 11 -10 -3 -9 -2 -19 4 -22 14
-9 -1 -27 -18 -21 -8 3 -11 1 -8 -4 8 -14 32 -13 37 2 13 39 -18 88 -37 58z"/>
<path d="M3587 123 c-12 -12 -7 -33 7 -33 26 0 28 -20 4 -29 -16 -7 -18 -10
-6 -10 9 -1 20 4 23 9 9 14 55 12 55 -2 0 -10 2 -10 8 0 5 7 6 27 4 44 l-5 32
-25 -30 c-16 -18 -27 -24 -30 -16 -2 6 -10 12 -18 12 -20 0 -17 18 4 23 14 4
14 5 1 6 -9 0 -19 -2 -22 -6z m79 -40 c-10 -10 -19 5 -10 18 6 11 8 11 12 0 2
-7 1 -15 -2 -18z"/>
<path d="M3710 106 c-15 -29 -8 -56 15 -56 23 0 31 31 12 45 -12 9 -14 14 -5
23 7 7 8 12 2 12 -6 0 -16 -11 -24 -24z m22 -31 c0 -5 -5 -11 -11 -13 -6 -2
-11 4 -11 13 0 9 5 15 11 13 6 -2 11 -8 11 -13z"/>
<path d="M2290 93 c0 -10 4 -14 8 -8 4 6 11 13 16 18 5 4 2 7 -7 7 -10 0 -17
-8 -17 -17z"/>
<path d="M2401 83 c-1 -27 3 -33 19 -33 16 0 20 6 19 33 -2 30 -2 30 -6 5 -6
-36 -20 -36 -26 0 -4 25 -4 25 -6 -5z"/>
<path d="M2547 104 c-13 -13 -7 -24 14 -24 11 0 19 5 17 12 -5 14 -22 21 -31
12z"/>
<path d="M2601 78 c2 -28 2 -29 6 -8 3 14 10 28 17 32 7 5 5 8 -6 8 -14 0 -18
-8 -17 -32z"/>
<path d="M2640 93 c0 -10 4 -14 8 -8 4 6 11 13 16 18 5 4 2 7 -7 7 -10 0 -17
-8 -17 -17z"/>
<path d="M2734 95 c-8 -21 2 -45 20 -45 19 0 29 29 15 46 -15 18 -28 18 -35
-1z m31 -15 c0 -7 -6 -15 -12 -17 -8 -3 -13 4 -13 17 0 13 5 20 13 18 6 -3 12
-11 12 -18z"/>
<path d="M2794 95 c-8 -20 2 -45 18 -44 10 0 10 2 1 6 -7 2 -13 13 -13 23 0
10 6 21 13 23 9 4 9 6 -1 6 -7 1 -15 -6 -18 -14z"/>
<path d="M2934 95 c-8 -20 2 -45 18 -44 10 0 10 2 1 6 -7 2 -13 13 -13 23 0
10 6 21 13 23 9 4 9 6 -1 6 -7 1 -15 -6 -18 -14z"/>
<path d="M2984 95 c-8 -21 2 -45 20 -45 17 0 28 24 20 45 -4 8 -13 15 -20 15
-8 0 -17 -7 -20 -15z m31 -15 c0 -7 -6 -15 -12 -17 -8 -3 -13 4 -13 17 0 13 5
20 13 18 6 -3 12 -11 12 -18z"/>
<path d="M3041 77 c2 -31 2 -31 6 -4 2 15 8 27 13 27 5 0 11 -12 13 -27 l4
-28 2 28 c0 15 5 27 10 27 5 0 12 -12 14 -27 4 -27 4 -27 6 4 1 29 -1 31 -34
31 -33 0 -35 -2 -34 -31z"/>
<path d="M2302 65 c-11 -12 -10 -15 3 -15 8 0 15 7 15 15 0 18 -2 18 -18 0z"/>
<path d="M2652 65 c-11 -12 -10 -15 3 -15 8 0 15 7 15 15 0 18 -2 18 -18 0z"/>
<path d="M2860 71 c0 -5 5 -13 10 -16 6 -3 10 -2 10 4 0 5 -4 13 -10 16 -5 3
-10 2 -10 -4z"/>
<path d="M2548 58 c5 -5 16 -8 23 -6 8 3 3 7 -10 11 -17 4 -21 3 -13 -5z"/>
</g>
</svg>
